<svg width="24" height="24" viewBox="0 0 24 24" fill="none" xmlns="http://www.w3.org/2000/svg">
<path d="M6.93795 10.0877C6.93795 10.9127 7.35045 11.2877 7.35045 11.5127C7.35045 11.6252 7.31295 11.6627 7.20045 11.7377L6.71295 12.0377C6.67545 12.0752 6.56295 12.0752 6.48795 12.0752C6.48795 12.0752 6.18795 12.1127 5.73795 11.1377C5.21295 11.8127 4.35045 12.2627 3.48794 12.1877C2.92544 12.2252 1.31294 11.8877 1.38794 10.1252C1.35044 8.73765 2.58794 7.87515 3.97545 7.95015C4.23795 7.95015 4.76295 7.95015 5.66295 8.17515V7.61265C5.77545 6.67515 5.13795 5.92515 4.01295 6.03765C3.97545 6.03765 3.33794 6.03765 2.32544 6.41265C2.06294 6.56265 2.06294 6.56265 1.95044 6.56265C1.68794 6.56265 1.80044 5.81265 1.83794 5.66265C1.98794 5.43765 3.15044 5.02515 4.20045 5.02515C4.95045 4.98765 5.66295 5.17515 6.26295 5.66265C6.75045 6.18765 6.93795 6.86265 6.90045 7.57515L6.93795 10.0877ZM3.75045 11.2502C4.91295 11.2502 5.43795 10.5002 5.55045 10.1252C5.58795 9.75015 5.58795 9.56265 5.58795 9.11265C5.21295 9.07515 4.68795 8.96265 4.12545 8.96265C3.60044 8.92515 2.55044 9.18765 2.58794 10.1252C2.66294 10.8002 3.07544 11.2877 3.75045 11.2502ZM9.97545 12.0752C9.67545 12.1127 9.56295 11.9252 9.48795 11.7002L7.68795 5.73765C7.65045 5.62515 7.65045 5.51265 7.65045 5.43765C7.65045 5.32515 7.68795 5.28765 7.80045 5.28765C7.80045 5.28765 7.76295 5.28765 8.58795 5.28765C8.88795 5.25015 9.00045 5.51265 9.07545 5.66265L10.3879 10.7627L11.6254 5.66265C11.6629 5.55015 11.7379 5.25015 12.1129 5.28765H12.7505C12.788 5.28765 13.163 5.28765 13.238 5.66265L14.438 10.8377L15.7505 5.66265C15.7505 5.62515 15.863 5.25015 16.238 5.28765H16.9879C17.0254 5.28765 17.2129 5.25015 17.1379 5.58765C17.1379 5.62515 17.2505 5.17515 15.2255 11.7377C15.188 11.9627 15.0754 12.1502 14.738 12.1127H14.063C13.6505 12.1502 13.5754 11.7377 13.5754 11.7002L12.2629 6.75015L11.0629 11.7002C11.0629 11.7377 11.0254 12.1127 10.5754 12.1127H10.0129V12.0752H9.97545ZM19.8755 12.3002C19.6504 12.3002 18.6755 12.3002 17.813 11.8877C17.663 11.8502 17.5129 11.6252 17.5129 11.4752V11.0627C17.5129 10.7627 17.738 10.8002 17.813 10.8377C18.188 10.9877 18.3755 11.1002 18.8629 11.2127C20.1754 11.5127 20.7754 11.1752 20.9254 11.0627C21.413 10.7627 21.4504 10.1252 21.0754 9.78765C20.7004 9.48765 20.5504 9.48765 19.163 9.03765C19.0504 8.96265 17.6255 8.51265 17.6255 7.12515C17.5879 6.11265 18.5254 5.06265 20.1379 5.06265C20.6255 5.06265 21.8254 5.21265 22.2004 5.62515C22.2379 5.66265 22.2379 5.77515 22.2379 5.88765V6.26265C22.2379 6.41265 22.2004 6.52515 22.0879 6.52515C21.788 6.48765 21.3379 6.11265 20.288 6.11265C20.0254 6.11265 18.8254 6.15015 18.9004 7.01265C18.9004 7.68765 19.913 7.95015 20.0254 8.02515C21.3379 8.43765 21.8254 8.51265 22.2754 9.15015C22.913 9.93765 22.5755 10.8752 22.4254 11.1377C21.7129 12.4502 19.9505 12.3002 19.8755 12.3002ZM21.3755 16.1252C18.863 17.9627 15.1504 18.9752 12.0379 18.9752C7.76295 19.0502 3.63794 17.4752 0.487938 14.6252C0.225437 14.4002 0.450438 14.1002 0.750438 14.3252C4.23795 16.2752 8.17545 17.3252 12.2254 17.3252C15.2254 17.3252 18.188 16.6877 20.9629 15.5252C21.413 15.3377 21.788 15.7877 21.3755 16.1252ZM22.4254 14.9252C22.1255 14.5127 20.2505 14.7752 19.4629 14.8127C19.2004 14.8502 19.163 14.6627 19.4254 14.5127C20.888 13.5002 23.288 13.7627 23.5504 14.1002C23.8505 14.4002 23.5129 16.8377 22.0879 18.0002C21.8629 18.1502 21.6754 18.0377 21.788 17.8502C22.0504 17.0252 22.7255 15.3377 22.4254 14.9252Z" fill="#111928"/>
</svg>
