<svg width="24" height="24" viewBox="0 0 24 24" fill="none" xmlns="http://www.w3.org/2000/svg">
<path d="M21.0373 4.16249H12.3748L11.5873 2.66249C11.1748 1.91249 10.4248 1.42499 9.5623 1.42499H2.9623C1.6873 1.42499 0.674805 2.43749 0.674805 3.71249V20.2875C0.674805 21.5625 1.6873 22.575 2.9623 22.575H21.0748C22.3498 22.575 23.3623 21.5625 23.3623 20.2875V6.44999C23.3623 5.17499 22.3123 4.16249 21.0373 4.16249ZM21.6748 20.2875C21.6748 20.625 21.4123 20.8875 21.0748 20.8875H2.9623C2.6248 20.8875 2.3623 20.625 2.3623 20.2875V3.71249C2.3623 3.37499 2.6248 3.11249 2.9623 3.11249H9.5623C9.7873 3.11249 9.9748 3.22499 10.0873 3.44999L11.1373 5.39999C11.2873 5.66249 11.5873 5.84999 11.8873 5.84999H21.0748C21.4123 5.84999 21.6748 6.11249 21.6748 6.44999V20.2875V20.2875Z" fill="#DFE4EA"/>
<path d="M14.6997 13.425L12.8622 15.225V9.75001C12.8622 9.30001 12.4872 8.88751 11.9997 8.88751C11.5122 8.88751 11.1372 9.26251 11.1372 9.75001V15.2625L9.26221 13.425C8.92471 13.0875 8.39971 13.0875 8.06221 13.425C7.72471 13.7625 7.72471 14.2875 8.06221 14.625L11.3622 17.85C11.5122 18 11.7372 18.075 11.9622 18.075C12.1872 18.075 12.3747 18 12.5622 17.85L15.8622 14.625C16.1997 14.2875 16.1997 13.7625 15.8622 13.425C15.5622 13.0875 15.0372 13.0875 14.6997 13.425Z" fill="#DFE4EA"/>
</svg>
