<svg width="68" height="72" viewBox="0 0 68 72" fill="none" xmlns="http://www.w3.org/2000/svg">
<g clip-path="url(#clip0_204_2)">
<path fill-rule="evenodd" clip-rule="evenodd" d="M33.3967 67.2879C37.8246 74.1738 47.693 73.041 50.8063 66.9427C52.829 65.3101 55.378 55.0715 56.5299 51.703C58.3391 46.4081 60.3301 41.2165 62.1457 35.993C65.4049 26.6095 72.7496 11.5562 59.4784 9.22523C58.9014 9.12405 58.2335 9.08041 57.4958 9.08835C58.1193 9.0943 58.6879 9.13794 59.1888 9.22523C60.4105 9.43948 61.4567 9.76086 62.3465 10.1775C61.3426 13.3179 60.0406 16.5932 59.4615 18.4441L48.8069 49.0526C47.8219 51.1376 46.0021 53.2642 43.4764 52.7246C34.0413 50.7031 41.9039 34.8821 24.9994 27.3693C22.3785 26.2048 20.4235 25.7823 17.5384 24.7527C15.4396 24.0048 11.5527 23.12 9.2468 21.5408C7.14378 22.2411 5.53957 22.876 4.84419 23.3679C1.91899 25.6017 -0.302395 27.7641 0.0336654 32.5868C0.581085 40.4209 8.78392 41.9445 16.5028 44.5076C23.3233 46.7712 26.3859 47.6123 28.7066 53.6828C29.9579 56.9522 31.8368 64.8716 33.3924 67.2919L33.3967 67.2879Z" fill="#008080"/>
<path fill-rule="evenodd" clip-rule="evenodd" d="M44.4108 52.8038C46.6026 52.8911 48.1963 50.9529 49.0945 49.0504L59.7491 18.4419C60.8503 14.9206 64.5702 6.24139 63.8706 3.14662C63.3127 0.670802 61.4147 -0.212002 58.3373 0.0419279C55.7904 0.252214 15.5857 11.4728 12.2209 12.5877C8.81591 13.7145 6.01118 16.4026 8.02755 20.0052C8.31922 20.5269 8.77998 20.9912 9.35277 21.4097C16.2938 19.1383 28.1066 16.2498 31.2136 15.3432C37.5776 13.4863 53.1695 8.16571 59.1869 9.22309C60.4086 9.43734 61.4548 9.75872 62.3446 10.1753C61.3407 13.3157 60.0387 16.591 59.4596 18.4419L48.805 49.0504C47.9469 50.8696 46.4526 52.7205 44.4087 52.8038H44.4108Z" fill="#008080" fill-opacity="0.8"/>
<path fill-rule="evenodd" clip-rule="evenodd" d="M48.8054 49.0505L59.46 18.442C60.0392 16.5911 61.3411 13.3158 62.3451 10.1754C61.4553 9.75878 60.409 9.4374 59.1874 9.22315C53.17 8.16577 37.578 13.4864 31.214 15.3433C28.0775 16.2578 16.0659 19.1939 9.15448 21.4753C11.4477 23.0961 15.4107 23.9928 17.537 24.7526C20.422 25.7822 22.3771 26.2027 24.998 27.3692C41.9024 34.884 34.0378 50.703 43.475 52.7245C46.0007 53.2661 47.8205 51.1395 48.8054 49.0525V49.0505Z" fill="#005A5A"/>
</g>
<defs>
<clipPath id="clip0_204_2">
<rect width="68" height="72" fill="white"/>
</clipPath>
</defs>
</svg>
