<svg width="24" height="18" viewBox="0 0 24 18" fill="none" xmlns="http://www.w3.org/2000/svg">
<path d="M9.26607 17.5499C9.26607 17.5499 9.22857 17.5499 9.26607 17.5499C9.15357 17.5499 9.07857 17.5499 9.00357 17.5124C8.92857 17.4749 8.85357 17.4375 8.77857 17.4C8.74107 17.3625 8.66607 17.3249 8.62857 17.2874C8.55357 17.2124 8.51607 17.1749 8.47857 17.0999C8.44107 17.0249 8.40357 16.9874 8.40357 16.9124L6.49107 9.78745L0.941073 7.87495C0.603573 7.76245 0.341073 7.42495 0.378573 7.04995C0.378573 6.67495 0.641073 6.37495 1.01607 6.26245L22.7661 0.487451H22.8036C22.8411 0.487451 22.9161 0.487451 22.9536 0.449951C22.9911 0.449951 22.9911 0.449951 23.0286 0.449951C23.1036 0.449951 23.1786 0.449951 23.2536 0.487451C23.3286 0.524951 23.4036 0.562451 23.4786 0.599951C23.5161 0.599951 23.5161 0.637451 23.5536 0.637451C23.5911 0.674951 23.6286 0.712451 23.6286 0.712451C23.6661 0.749951 23.7036 0.824951 23.7411 0.862451C23.7786 0.937451 23.7786 0.974951 23.8161 1.04995C23.8161 1.08745 23.8161 1.16245 23.8536 1.19995C23.8536 1.23745 23.8536 1.27495 23.8536 1.27495C23.8536 1.34995 23.8536 1.42495 23.8161 1.49995V1.53745L18.8286 14.7C18.7536 14.925 18.5661 15.1124 18.3411 15.1874C18.1161 15.2624 17.8911 15.2624 17.6661 15.1874L14.1786 13.575L9.82857 17.3249C9.79107 17.3624 9.71607 17.3999 9.64107 17.4374C9.56607 17.4749 9.49107 17.5124 9.41607 17.5124C9.37857 17.5499 9.30357 17.5499 9.26607 17.5499ZM11.5161 12.1874L10.9161 14.1375L12.5661 12.7125L11.5161 12.1874ZM8.21607 9.56245L9.30357 13.65L10.2036 10.7249V10.6875C10.2411 10.6125 10.2786 10.5375 10.3161 10.5C10.3536 10.4625 10.3536 10.4249 10.3911 10.4249C10.4286 10.3874 10.4661 10.35 10.5036 10.3125L16.4661 5.47495L8.21607 9.56245ZM14.4411 11.775L17.5911 13.2374L21.0786 3.89995L12.5661 10.7999L14.4411 11.775ZM4.12857 7.16245L7.16607 8.17495L15.1161 4.23745L4.12857 7.16245Z" fill="#DFE4EA"/>
</svg>
