<svg width="24" height="24" viewBox="0 0 24 24" fill="none" xmlns="http://www.w3.org/2000/svg">
<g clip-path="url(#clip0_310_7854)">
<path d="M23.5875 11.4373C23.5875 7.79985 23.5875 4.04985 23.5875 0.412354C19.35 0.974854 15.15 1.57485 10.875 2.24985C10.875 5.36235 10.875 8.47485 10.875 11.5124C15.15 11.4748 19.35 11.4748 23.5875 11.4373Z" fill="#111928"/>
<path d="M0.375 3.8247V11.6247C3.4875 11.6247 6.7125 11.5872 9.825 11.5872C9.825 8.5122 9.825 5.5872 9.825 2.51221C6.7125 2.92471 3.4875 3.33721 0.375 3.8247Z" fill="#111928"/>
<path d="M0.375 12.5248V20.3248C3.4875 20.7373 6.7125 21.1498 9.825 21.5998C9.825 18.5998 9.825 15.5998 9.825 12.5998C6.7125 12.5248 3.4875 12.5248 0.375 12.5248Z" fill="#111928"/>
<path d="M10.9878 12.6749C11.0253 15.7499 11.0253 18.7499 11.0253 21.7874C15.2253 22.3499 19.4253 22.9499 23.6253 23.5874C23.6253 19.9499 23.6253 16.3124 23.6253 12.6749C19.3503 12.6749 15.1503 12.6749 10.9878 12.6749Z" fill="#111928"/>
</g>
<defs>
<clipPath id="clip0_310_7854">
<rect width="24" height="24" fill="white"/>
</clipPath>
</defs>
</svg>
