<svg width="24" height="24" viewBox="0 0 24 24" fill="none" xmlns="http://www.w3.org/2000/svg">
<g clip-path="url(#clip0_310_9426)">
<path d="M21.0002 23.3625H3.0002C1.7252 23.3625 0.637695 22.3125 0.637695 21V3.00001C0.637695 1.72501 1.6877 0.637512 3.0002 0.637512H12.9377C13.3877 0.637512 13.8002 1.01251 13.8002 1.50001C13.8002 1.98751 13.4252 2.36251 12.9377 2.36251H3.0002C2.6252 2.36251 2.3627 2.62501 2.3627 3.00001V21C2.3627 21.375 2.6627 21.675 3.0377 21.675H21.0377C21.4127 21.675 21.7127 21.375 21.7127 21V11.1C21.7127 10.65 22.0877 10.2375 22.5752 10.2375C23.0627 10.2375 23.4377 10.6125 23.4377 11.1V21C23.3627 22.275 22.2752 23.3625 21.0002 23.3625Z" fill="#DFE4EA"/>
<path d="M12.0001 12.8625C11.7751 12.8625 11.5501 12.7875 11.4001 12.6C11.0626 12.2625 11.0626 11.7375 11.4001 11.4L20.4001 2.40002H17.2501C16.8001 2.40002 16.3876 2.02502 16.3876 1.53752C16.3876 1.05002 16.7626 0.675018 17.2501 0.675018H22.5001C22.9501 0.675018 23.3626 1.05002 23.3626 1.53752V6.75002C23.3626 7.20002 22.9876 7.61252 22.5001 7.61252C22.0126 7.61252 21.6376 7.23752 21.6376 6.75002V3.52502L12.6001 12.6C12.4501 12.75 12.2251 12.8625 12.0001 12.8625Z" fill="#DFE4EA"/>
</g>
<defs>
<clipPath id="clip0_310_9426">
<rect width="24" height="24" fill="white"/>
</clipPath>
</defs>
</svg>
